HIERARCHY
ROOT Hips
{
	OFFSET -0.001795 -0.223333 0.028219
	CHANNELS 6 Xposition Yposition Zposition Zrotation Yrotation Xrotation 
	JOINT LeftUpLeg
	{
		OFFSET 0.069520 -0.091406 -0.006815
		CHANNELS 3 Zrotation Yrotation Xrotation
		JOINT LeftLeg
		{
			OFFSET 0.034277 -0.375199 -0.004496
			CHANNELS 3 Zrotation Yrotation Xrotation
			JOINT LeftFoot
			{
				OFFSET -0.013596 -0.397961 -0.043693
				CHANNELS 3 Zrotation Yrotation Xrotation
				JOINT LeftToe
				{
					OFFSET 0.026358 -0.055791 0.119288
					CHANNELS 3 Zrotation Yrotation Xrotation
					End Site
					{
						OFFSET 0.000000 0.000000 0.000000
					}
				}
			}
		}
	}
	JOINT RightUpLeg
	{
		OFFSET -0.067670 -0.090522 -0.004320
		CHANNELS 3 Zrotation Yrotation Xrotation
		JOINT RightLeg
		{
			OFFSET -0.038290 -0.382569 -0.008850
			CHANNELS 3 Zrotation Yrotation Xrotation
			JOINT RightFoot
			{
				OFFSET 0.015774 -0.398415 -0.042312
				CHANNELS 3 Zrotation Yrotation Xrotation
				JOINT RightToe
				{
					OFFSET -0.025372 -0.048144 0.123348
					CHANNELS 3 Zrotation Yrotation Xrotation
					End Site
					{
						OFFSET 0.000000 0.000000 0.000000
					}
				}
			}
		}
	}
	JOINT Spine
	{
		OFFSET -0.002533 0.108963 -0.026696
		CHANNELS 3 Zrotation Yrotation Xrotation
		JOINT Spine1
		{
			OFFSET 0.005487 0.135180 0.001092
			CHANNELS 3 Zrotation Yrotation Xrotation
			JOINT Spine2
			{
				OFFSET 0.001457 0.052922 0.025425
				CHANNELS 3 Zrotation Yrotation Xrotation
				JOINT Neck
				{
					OFFSET -0.002778 0.213870 -0.042857
					CHANNELS 3 Zrotation Yrotation Xrotation
					JOINT Head
					{
						OFFSET 0.005152 0.064970 0.051349
						CHANNELS 3 Zrotation Yrotation Xrotation
						End Site
						{
							OFFSET 0.000000 0.000000 0.000000
						}
					}
				}
				JOINT LeftShoulder
				{
					OFFSET 0.078845 0.121749 -0.034090
					CHANNELS 3 Zrotation Yrotation Xrotation
					JOINT LeftArm
					{
						OFFSET 0.090977 0.030469 -0.008868
						CHANNELS 3 Zrotation Yrotation Xrotation
						JOINT LeftForeArm
						{
							OFFSET 0.259612 -0.012772 -0.027456
							CHANNELS 3 Zrotation Yrotation Xrotation
							JOINT LeftHand
							{
								OFFSET 0.249234 0.008986 -0.001171
								CHANNELS 3 Zrotation Yrotation Xrotation
								End Site
								{
									OFFSET 0.000000 0.000000 0.000000
								}
							}
						}
					}
				}
				JOINT RightShoulder
				{
					OFFSET -0.081759 0.118833 -0.038615
					CHANNELS 3 Zrotation Yrotation Xrotation
					JOINT RightArm
					{
						OFFSET -0.096012 0.032551 -0.009143
						CHANNELS 3 Zrotation Yrotation Xrotation
						JOINT RightForeArm
						{
							OFFSET -0.253742 -0.013329 -0.021401
							CHANNELS 3 Zrotation Yrotation Xrotation
							JOINT RightHand
							{
								OFFSET -0.255298 0.007772 -0.005559
								CHANNELS 3 Zrotation Yrotation Xrotation
								End Site
								{
									OFFSET 0.000000 0.000000 0.000000
								}
							}
						}
					}
				}
			}
		}
	}
}
MOTION
Frames: 7
Frame Time: 0.050000
-0.218571 0.951096 -3.540725 1.906576 -5.778658 -6.766388 1.652522 -0.633586 -8.746189 -15.058062 7.398319 39.954336 9.885150 19.929178 12.159263 0.000000 0.000000 0.000000 1.657445 0.090996 -1.031251 -0.381925 0.744097 13.118376 -3.358089 -9.010170 1.943436 0.000000 0.000000 0.000000 7.466925 -1.094584 12.277484 -7.994839 2.479928 -25.913651 -2.954189 9.814107 34.510769 11.966099 -4.281920 -28.556509 0.000000 0.000000 0.000000 -2.567472 1.012056 -0.627086 -58.863824 -1.105108 -10.418075 -27.287748 -22.704716 6.699755 0.000000 0.000000 0.000000 -1.980176 -13.871961 -5.011143 35.905433 14.392599 -1.681018 122.936137 46.799349 87.406266 0.000000 0.000000 0.000000 
-0.217672 0.952599 -3.575230 1.789507 -4.614580 -6.150714 -1.410991 -0.183827 -1.621270 -12.943314 5.743923 37.956103 8.926114 18.596432 12.336561 0.000000 0.000000 0.000000 1.502049 0.406740 -3.847927 0.261403 0.597620 13.430291 -3.652913 -10.153653 3.383808 0.000000 0.000000 0.000000 8.257868 -1.113134 11.452651 -8.707307 2.684021 -25.353215 -3.033353 8.749801 34.255119 12.828187 -4.753148 -29.014266 0.000000 0.000000 0.000000 -2.169824 -0.972394 0.151103 -58.795121 -0.783373 -10.491843 -29.430658 -25.251996 8.018968 0.000000 0.000000 0.000000 -2.313201 -16.160404 -5.800871 32.037493 12.521963 -2.096987 126.027217 45.103531 88.098472 0.000000 0.000000 0.000000 
-0.217390 0.951144 -3.611609 0.708998 -2.373503 -5.026754 -2.611680 0.576490 4.965288 -10.318002 3.478253 32.449736 6.410352 14.653738 10.498352 0.000000 0.000000 0.000000 2.002184 0.788557 -6.939425 1.723398 0.181573 12.402495 -4.652500 -12.760217 5.392307 0.000000 0.000000 0.000000 9.838433 -1.133722 9.862698 -7.997384 2.529405 -25.170890 -5.609244 7.181223 34.686126 14.228270 -5.760300 -28.581875 0.000000 0.000000 0.000000 -0.604047 0.197390 -0.135005 -59.336285 -1.250106 -10.400140 -31.061320 -27.240174 9.169621 0.000000 0.000000 0.000000 -2.929809 -15.642739 -5.558905 29.812774 10.360207 -2.511647 126.149428 44.440324 86.705321 0.000000 0.000000 0.000000 
-0.217666 0.949566 -3.651431 -0.182280 0.680589 -4.499509 -3.018160 1.232567 10.520829 -7.590623 1.611497 24.671546 5.099191 11.846347 5.801854 0.000000 0.000000 0.000000 1.764956 1.141658 -10.033100 2.295766 -0.050498 10.838998 -4.818576 -13.640737 9.937316 0.000000 0.000000 0.000000 10.895375 -1.220251 9.385878 -8.848034 2.820158 -24.137741 -5.890939 4.896691 34.241446 14.902444 -5.891973 -29.962218 0.000000 0.000000 0.000000 -1.502889 -2.133108 0.626241 -57.220621 -2.893589 -9.163008 -33.299690 -31.910070 11.483622 0.000000 0.000000 0.000000 -3.091719 -17.268387 -6.133501 27.406356 6.265495 -3.099101 125.431731 42.182469 81.710983 0.000000 0.000000 0.000000 
-0.218078 0.946560 -3.695127 -0.177610 1.597246 -4.327152 -3.537218 1.493773 12.432870 -7.004289 1.237468 20.090133 5.084650 11.706169 5.189556 0.000000 0.000000 0.000000 1.254173 1.479171 -13.514214 2.780500 -0.172807 10.727466 -5.310805 -14.866774 13.793562 0.000000 0.000000 0.000000 10.224473 -1.269583 9.996837 -8.733311 2.801360 -24.133035 -6.381684 3.954789 34.105629 16.307558 -6.796387 -29.893995 0.000000 0.000000 0.000000 -0.092663 -2.988318 1.012086 -56.504384 -5.251250 -7.909283 -35.166274 -34.449712 13.122865 0.000000 0.000000 0.000000 -2.757322 -18.699802 -6.685762 25.989635 4.223670 -3.284116 119.736453 42.093398 73.762735 0.000000 0.000000 0.000000 
-0.218612 0.943535 -3.740958 -0.311525 2.750117 -4.262652 -4.371098 1.727735 13.800827 -5.820043 0.796984 15.807860 5.244851 11.715748 3.881890 0.000000 0.000000 0.000000 0.820928 1.661670 -15.883988 2.728499 -0.203778 9.017021 -5.039849 -14.581147 17.642617 0.000000 0.000000 0.000000 10.094829 -1.206580 9.474485 -9.030501 3.053424 -21.581092 -6.281129 2.936898 32.787984 16.395518 -6.862188 -29.672207 0.000000 0.000000 0.000000 1.078209 -4.702857 1.630625 -55.869259 -7.321194 -6.708511 -34.483642 -37.676775 14.120304 0.000000 0.000000 0.000000 -2.407369 -19.410141 -6.970372 26.286590 0.985353 -3.756779 113.576237 41.593270 65.970715 0.000000 0.000000 0.000000 
-0.219817 0.939892 -3.786254 -0.192120 3.507183 -4.712682 -4.951134 1.890064 14.745402 -4.218345 0.408058 11.904441 4.300180 9.285952 1.370509 0.000000 0.000000 0.000000 0.218401 1.730571 -17.618446 1.974911 -0.089375 7.689127 -4.372998 -13.595074 19.980237 0.000000 0.000000 0.000000 9.194030 -1.183902 9.924450 -8.447154 2.911857 -21.689281 -6.576398 1.737503 33.216177 16.090776 -6.903854 -29.513048 0.000000 0.000000 0.000000 -0.357214 -5.324765 1.804135 -53.135440 -8.586190 -5.831389 -35.159864 -40.401993 15.561961 0.000000 0.000000 0.000000 -1.505623 -18.758539 -6.848736 25.495140 -1.451644 -4.068084 110.613099 40.988658 61.227729 0.000000 0.000000 0.000000 
